<svg xmlns="http://www.w3.org/2000/svg" width="24" height="24" fill="none" viewBox="0 0 24 24" variant="inherit" data-mds-element="true" class="StyledIcon-sc-1055dc55-1 dSJjlg">
  <path fill="#21212E" fill-rule="evenodd" d="M4 5.75A.75.75 0 0 1 4.75 5h14.5a.75.75 0 0 1 0 1.5H4.75A.75.75 0 0 1 4 5.75Zm7 12.5a.75.75 0 0 1 .75-.75h7.5a.75.75 0 0 1 0 1.5h-7.5a.75.75 0 0 1-.75-.75ZM4 12a.75.75 0 0 1 .75-.75h14.5a.75.75 0 0 1 0 1.5H4.75A.75.75 0 0 1 4 12Zm2.712 8.954a.75.75 0 1 0 1.06-1.06l-1.65-1.652 1.65-1.651a.75.75 0 0 0-1.06-1.06L4.53 17.71a.75.75 0 0 0 0 1.061l2.182 2.182Z" clip-rule="evenodd"></path>
</svg>
